<mxfile host="app.diagrams.net" modified="2022-10-20T07:38:01.363Z" agent="5.0 (Windows NT 10.0; WOW64) AppleWebKit/537.36 (KHTML, like Gecko) Chrome/103.0.0.0 Safari/537.36" etag="bUrqJgBERBDCrG-_MefL" version="20.4.1" type="github">
  <diagram id="Bo_oAvJnhpPzWFMqWJPq" name="第 1 页">
    <mxGraphModel dx="1673" dy="896" grid="1" gridSize="10" guides="1" tooltips="1" connect="1" arrows="1" fold="1" page="1" pageScale="1" pageWidth="827" pageHeight="1169" math="0" shadow="0">
      <root>
        <mxCell id="0" />
        <mxCell id="1" parent="0" />
        <mxCell id="R3z29O32fDnyezuO_mP1-3" style="edgeStyle=orthogonalEdgeStyle;rounded=0;orthogonalLoop=1;jettySize=auto;html=1;exitX=0.5;exitY=1;exitDx=0;exitDy=0;entryX=0.5;entryY=0;entryDx=0;entryDy=0;fontSize=16;" edge="1" parent="1" source="R3z29O32fDnyezuO_mP1-1">
          <mxGeometry relative="1" as="geometry">
            <mxPoint x="180" y="250" as="targetPoint" />
          </mxGeometry>
        </mxCell>
        <mxCell id="R3z29O32fDnyezuO_mP1-1" value="&lt;font style=&quot;font-size: 16px;&quot;&gt;打卡模式&lt;/font&gt;" style="rounded=0;whiteSpace=wrap;html=1;" vertex="1" parent="1">
          <mxGeometry x="120" y="160" width="120" height="40" as="geometry" />
        </mxCell>
        <mxCell id="R3z29O32fDnyezuO_mP1-5" style="rounded=0;orthogonalLoop=1;jettySize=auto;html=1;exitX=0;exitY=1;exitDx=0;exitDy=0;entryX=0.5;entryY=0;entryDx=0;entryDy=0;fontSize=16;" edge="1" parent="1" source="R3z29O32fDnyezuO_mP1-4" target="R3z29O32fDnyezuO_mP1-1">
          <mxGeometry relative="1" as="geometry" />
        </mxCell>
        <mxCell id="R3z29O32fDnyezuO_mP1-7" value="" style="edgeStyle=none;rounded=0;orthogonalLoop=1;jettySize=auto;html=1;fontSize=16;" edge="1" parent="1" source="R3z29O32fDnyezuO_mP1-4" target="R3z29O32fDnyezuO_mP1-6">
          <mxGeometry relative="1" as="geometry" />
        </mxCell>
        <mxCell id="R3z29O32fDnyezuO_mP1-9" style="edgeStyle=none;rounded=0;orthogonalLoop=1;jettySize=auto;html=1;exitX=1;exitY=1;exitDx=0;exitDy=0;entryX=0.5;entryY=0;entryDx=0;entryDy=0;fontSize=16;" edge="1" parent="1" source="R3z29O32fDnyezuO_mP1-4" target="R3z29O32fDnyezuO_mP1-8">
          <mxGeometry relative="1" as="geometry" />
        </mxCell>
        <mxCell id="R3z29O32fDnyezuO_mP1-4" value="首页" style="ellipse;whiteSpace=wrap;html=1;fontSize=16;" vertex="1" parent="1">
          <mxGeometry x="340" y="20" width="120" height="50" as="geometry" />
        </mxCell>
        <mxCell id="R3z29O32fDnyezuO_mP1-35" style="edgeStyle=elbowEdgeStyle;rounded=0;orthogonalLoop=1;jettySize=auto;html=1;exitX=0.5;exitY=1;exitDx=0;exitDy=0;fontSize=16;" edge="1" parent="1" source="R3z29O32fDnyezuO_mP1-6">
          <mxGeometry relative="1" as="geometry">
            <mxPoint x="360" y="250" as="targetPoint" />
          </mxGeometry>
        </mxCell>
        <mxCell id="R3z29O32fDnyezuO_mP1-6" value="&lt;font style=&quot;font-size: 16px;&quot;&gt;寻宝模式&lt;/font&gt;" style="rounded=0;whiteSpace=wrap;html=1;" vertex="1" parent="1">
          <mxGeometry x="300" y="160" width="120" height="40" as="geometry" />
        </mxCell>
        <mxCell id="R3z29O32fDnyezuO_mP1-40" style="edgeStyle=elbowEdgeStyle;rounded=0;orthogonalLoop=1;jettySize=auto;html=1;exitX=0.5;exitY=1;exitDx=0;exitDy=0;fontSize=16;" edge="1" parent="1" source="R3z29O32fDnyezuO_mP1-8">
          <mxGeometry relative="1" as="geometry">
            <mxPoint x="550.5294117647059" y="250" as="targetPoint" />
          </mxGeometry>
        </mxCell>
        <mxCell id="R3z29O32fDnyezuO_mP1-8" value="&lt;font style=&quot;font-size: 16px;&quot;&gt;PK模式&lt;/font&gt;" style="rounded=0;whiteSpace=wrap;html=1;" vertex="1" parent="1">
          <mxGeometry x="490" y="160" width="120" height="40" as="geometry" />
        </mxCell>
        <mxCell id="R3z29O32fDnyezuO_mP1-12" style="edgeStyle=elbowEdgeStyle;rounded=0;orthogonalLoop=1;jettySize=auto;html=1;exitX=0;exitY=0.5;exitDx=0;exitDy=0;fontSize=16;entryX=0;entryY=0.5;entryDx=0;entryDy=0;" edge="1" parent="1" source="R3z29O32fDnyezuO_mP1-10" target="R3z29O32fDnyezuO_mP1-1">
          <mxGeometry relative="1" as="geometry">
            <mxPoint x="180" y="120" as="targetPoint" />
            <Array as="points">
              <mxPoint x="50" y="200" />
            </Array>
          </mxGeometry>
        </mxCell>
        <mxCell id="R3z29O32fDnyezuO_mP1-14" style="edgeStyle=elbowEdgeStyle;rounded=0;orthogonalLoop=1;jettySize=auto;html=1;exitX=0.5;exitY=1;exitDx=0;exitDy=0;fontSize=16;" edge="1" parent="1" source="R3z29O32fDnyezuO_mP1-10">
          <mxGeometry relative="1" as="geometry">
            <mxPoint x="180" y="350" as="targetPoint" />
          </mxGeometry>
        </mxCell>
        <mxCell id="R3z29O32fDnyezuO_mP1-10" value="是否成功" style="rhombus;whiteSpace=wrap;html=1;fontSize=16;" vertex="1" parent="1">
          <mxGeometry x="130" y="250" width="100" height="50" as="geometry" />
        </mxCell>
        <mxCell id="R3z29O32fDnyezuO_mP1-13" value="否" style="text;html=1;align=center;verticalAlign=middle;resizable=0;points=[];autosize=1;strokeColor=none;fillColor=none;fontSize=16;" vertex="1" parent="1">
          <mxGeometry x="75" y="250" width="40" height="30" as="geometry" />
        </mxCell>
        <mxCell id="R3z29O32fDnyezuO_mP1-15" value="是" style="text;html=1;align=center;verticalAlign=middle;resizable=0;points=[];autosize=1;strokeColor=none;fillColor=none;fontSize=16;" vertex="1" parent="1">
          <mxGeometry x="175" y="300" width="40" height="30" as="geometry" />
        </mxCell>
        <mxCell id="R3z29O32fDnyezuO_mP1-31" style="edgeStyle=elbowEdgeStyle;rounded=0;orthogonalLoop=1;jettySize=auto;html=1;exitX=0.5;exitY=1;exitDx=0;exitDy=0;fontSize=16;" edge="1" parent="1" source="R3z29O32fDnyezuO_mP1-17">
          <mxGeometry relative="1" as="geometry">
            <mxPoint x="180" y="440" as="targetPoint" />
          </mxGeometry>
        </mxCell>
        <mxCell id="R3z29O32fDnyezuO_mP1-17" value="&lt;font style=&quot;font-size: 16px;&quot;&gt;盲盒&lt;/font&gt;" style="rounded=0;whiteSpace=wrap;html=1;" vertex="1" parent="1">
          <mxGeometry x="120" y="350" width="120" height="40" as="geometry" />
        </mxCell>
        <mxCell id="R3z29O32fDnyezuO_mP1-33" style="edgeStyle=elbowEdgeStyle;rounded=0;orthogonalLoop=1;jettySize=auto;html=1;exitX=0.5;exitY=1;exitDx=0;exitDy=0;fontSize=16;" edge="1" parent="1" source="R3z29O32fDnyezuO_mP1-32">
          <mxGeometry relative="1" as="geometry">
            <mxPoint x="180" y="530" as="targetPoint" />
          </mxGeometry>
        </mxCell>
        <mxCell id="R3z29O32fDnyezuO_mP1-32" value="&lt;font style=&quot;font-size: 16px;&quot;&gt;徽章&lt;/font&gt;" style="rounded=0;whiteSpace=wrap;html=1;" vertex="1" parent="1">
          <mxGeometry x="120" y="440" width="120" height="40" as="geometry" />
        </mxCell>
        <mxCell id="R3z29O32fDnyezuO_mP1-39" style="edgeStyle=elbowEdgeStyle;rounded=0;orthogonalLoop=1;jettySize=auto;html=1;exitX=0.5;exitY=1;exitDx=0;exitDy=0;fontSize=16;" edge="1" parent="1" source="R3z29O32fDnyezuO_mP1-34">
          <mxGeometry relative="1" as="geometry">
            <mxPoint x="180" y="610" as="targetPoint" />
          </mxGeometry>
        </mxCell>
        <mxCell id="R3z29O32fDnyezuO_mP1-34" value="&lt;font style=&quot;font-size: 16px;&quot;&gt;宠物AR展示&lt;/font&gt;" style="rounded=0;whiteSpace=wrap;html=1;" vertex="1" parent="1">
          <mxGeometry x="120" y="530" width="120" height="40" as="geometry" />
        </mxCell>
        <mxCell id="R3z29O32fDnyezuO_mP1-58" style="edgeStyle=elbowEdgeStyle;rounded=0;orthogonalLoop=1;jettySize=auto;html=1;exitX=0.5;exitY=1;exitDx=0;exitDy=0;fontSize=16;" edge="1" parent="1" source="R3z29O32fDnyezuO_mP1-36">
          <mxGeometry relative="1" as="geometry">
            <mxPoint x="359.9411764705883" y="340" as="targetPoint" />
          </mxGeometry>
        </mxCell>
        <mxCell id="R3z29O32fDnyezuO_mP1-36" value="&lt;font style=&quot;font-size: 16px;&quot;&gt;显示附近宠物位置&lt;/font&gt;" style="rounded=0;whiteSpace=wrap;html=1;" vertex="1" parent="1">
          <mxGeometry x="300" y="250" width="120" height="40" as="geometry" />
        </mxCell>
        <mxCell id="R3z29O32fDnyezuO_mP1-41" value="&lt;font style=&quot;font-size: 16px;&quot;&gt;宠物藏馆&lt;/font&gt;" style="rounded=0;whiteSpace=wrap;html=1;" vertex="1" parent="1">
          <mxGeometry x="120" y="620" width="120" height="40" as="geometry" />
        </mxCell>
        <mxCell id="R3z29O32fDnyezuO_mP1-45" style="edgeStyle=elbowEdgeStyle;rounded=0;orthogonalLoop=1;jettySize=auto;html=1;exitX=0.5;exitY=1;exitDx=0;exitDy=0;entryX=0.5;entryY=0;entryDx=0;entryDy=0;fontSize=16;" edge="1" parent="1" source="R3z29O32fDnyezuO_mP1-43" target="R3z29O32fDnyezuO_mP1-44">
          <mxGeometry relative="1" as="geometry" />
        </mxCell>
        <mxCell id="R3z29O32fDnyezuO_mP1-43" value="&lt;font style=&quot;font-size: 16px;&quot;&gt;查看朋友圈排名&lt;/font&gt;" style="rounded=0;whiteSpace=wrap;html=1;" vertex="1" parent="1">
          <mxGeometry x="490" y="255" width="120" height="40" as="geometry" />
        </mxCell>
        <mxCell id="R3z29O32fDnyezuO_mP1-46" style="edgeStyle=elbowEdgeStyle;rounded=0;orthogonalLoop=1;jettySize=auto;html=1;exitX=0.5;exitY=1;exitDx=0;exitDy=0;fontSize=16;" edge="1" parent="1" source="R3z29O32fDnyezuO_mP1-44">
          <mxGeometry relative="1" as="geometry">
            <mxPoint x="550.5294117647059" y="440" as="targetPoint" />
          </mxGeometry>
        </mxCell>
        <mxCell id="R3z29O32fDnyezuO_mP1-44" value="&lt;font style=&quot;font-size: 16px;&quot;&gt;进入朋友的藏馆&lt;/font&gt;" style="rounded=0;whiteSpace=wrap;html=1;" vertex="1" parent="1">
          <mxGeometry x="490" y="350" width="120" height="40" as="geometry" />
        </mxCell>
        <mxCell id="R3z29O32fDnyezuO_mP1-48" style="edgeStyle=elbowEdgeStyle;rounded=0;orthogonalLoop=1;jettySize=auto;html=1;exitX=0.5;exitY=1;exitDx=0;exitDy=0;fontSize=16;" edge="1" parent="1" source="R3z29O32fDnyezuO_mP1-47">
          <mxGeometry relative="1" as="geometry">
            <mxPoint x="550.5294117647059" y="530" as="targetPoint" />
          </mxGeometry>
        </mxCell>
        <mxCell id="R3z29O32fDnyezuO_mP1-53" style="edgeStyle=elbowEdgeStyle;rounded=0;orthogonalLoop=1;jettySize=auto;html=1;exitX=1;exitY=0.5;exitDx=0;exitDy=0;entryX=0;entryY=0.5;entryDx=0;entryDy=0;fontSize=16;" edge="1" parent="1" source="R3z29O32fDnyezuO_mP1-47" target="R3z29O32fDnyezuO_mP1-52">
          <mxGeometry relative="1" as="geometry" />
        </mxCell>
        <mxCell id="R3z29O32fDnyezuO_mP1-47" value="&lt;span style=&quot;font-size: 16px;&quot;&gt;PK&lt;/span&gt;" style="rounded=0;whiteSpace=wrap;html=1;" vertex="1" parent="1">
          <mxGeometry x="490" y="442" width="120" height="40" as="geometry" />
        </mxCell>
        <mxCell id="R3z29O32fDnyezuO_mP1-49" value="发送动态" style="text;html=1;align=center;verticalAlign=middle;resizable=0;points=[];autosize=1;strokeColor=none;fillColor=none;fontSize=16;" vertex="1" parent="1">
          <mxGeometry x="170" y="210" width="90" height="30" as="geometry" />
        </mxCell>
        <mxCell id="R3z29O32fDnyezuO_mP1-59" style="edgeStyle=elbowEdgeStyle;rounded=0;orthogonalLoop=1;jettySize=auto;html=1;exitX=0.5;exitY=1;exitDx=0;exitDy=0;fontSize=16;" edge="1" parent="1" source="R3z29O32fDnyezuO_mP1-51">
          <mxGeometry relative="1" as="geometry">
            <mxPoint x="550.5294117647059" y="620" as="targetPoint" />
          </mxGeometry>
        </mxCell>
        <mxCell id="R3z29O32fDnyezuO_mP1-51" value="&lt;font style=&quot;font-size: 16px;&quot;&gt;与朋友宠物合影&lt;/font&gt;" style="rounded=0;whiteSpace=wrap;html=1;" vertex="1" parent="1">
          <mxGeometry x="490" y="530" width="120" height="40" as="geometry" />
        </mxCell>
        <mxCell id="R3z29O32fDnyezuO_mP1-54" style="edgeStyle=elbowEdgeStyle;rounded=0;orthogonalLoop=1;jettySize=auto;html=1;exitX=0.5;exitY=1;exitDx=0;exitDy=0;fontSize=16;" edge="1" parent="1" source="R3z29O32fDnyezuO_mP1-52">
          <mxGeometry relative="1" as="geometry">
            <mxPoint x="550" y="510" as="targetPoint" />
            <Array as="points">
              <mxPoint x="720" y="520" />
            </Array>
          </mxGeometry>
        </mxCell>
        <mxCell id="R3z29O32fDnyezuO_mP1-52" value="是否获胜" style="rhombus;whiteSpace=wrap;html=1;fontSize=16;" vertex="1" parent="1">
          <mxGeometry x="670" y="437" width="100" height="50" as="geometry" />
        </mxCell>
        <mxCell id="R3z29O32fDnyezuO_mP1-55" value="+" style="text;html=1;align=center;verticalAlign=middle;resizable=0;points=[];autosize=1;strokeColor=none;fillColor=none;fontSize=16;" vertex="1" parent="1">
          <mxGeometry x="625" y="485" width="30" height="30" as="geometry" />
        </mxCell>
        <mxCell id="R3z29O32fDnyezuO_mP1-60" value="&lt;font style=&quot;font-size: 16px;&quot;&gt;宠物藏馆&lt;/font&gt;" style="rounded=0;whiteSpace=wrap;html=1;" vertex="1" parent="1">
          <mxGeometry x="490" y="620" width="120" height="40" as="geometry" />
        </mxCell>
        <mxCell id="R3z29O32fDnyezuO_mP1-65" style="edgeStyle=elbowEdgeStyle;rounded=0;orthogonalLoop=1;jettySize=auto;html=1;exitX=0.5;exitY=1;exitDx=0;exitDy=0;entryX=0.5;entryY=0;entryDx=0;entryDy=0;fontSize=16;" edge="1" parent="1" source="R3z29O32fDnyezuO_mP1-63" target="R3z29O32fDnyezuO_mP1-64">
          <mxGeometry relative="1" as="geometry" />
        </mxCell>
        <mxCell id="R3z29O32fDnyezuO_mP1-63" value="&lt;font style=&quot;font-size: 16px;&quot;&gt;捕捉宠物&lt;/font&gt;" style="rounded=0;whiteSpace=wrap;html=1;" vertex="1" parent="1">
          <mxGeometry x="300" y="345" width="120" height="40" as="geometry" />
        </mxCell>
        <mxCell id="R3z29O32fDnyezuO_mP1-66" style="edgeStyle=elbowEdgeStyle;rounded=0;orthogonalLoop=1;jettySize=auto;html=1;exitX=0.5;exitY=1;exitDx=0;exitDy=0;fontSize=16;entryX=0.5;entryY=0;entryDx=0;entryDy=0;" edge="1" parent="1" source="R3z29O32fDnyezuO_mP1-64" target="R3z29O32fDnyezuO_mP1-67">
          <mxGeometry relative="1" as="geometry">
            <mxPoint x="359.9411764705883" y="520" as="targetPoint" />
          </mxGeometry>
        </mxCell>
        <mxCell id="R3z29O32fDnyezuO_mP1-71" style="edgeStyle=elbowEdgeStyle;rounded=0;orthogonalLoop=1;jettySize=auto;html=1;exitX=1;exitY=0.5;exitDx=0;exitDy=0;fontSize=16;" edge="1" parent="1" source="R3z29O32fDnyezuO_mP1-64">
          <mxGeometry relative="1" as="geometry">
            <mxPoint x="360" y="310" as="targetPoint" />
            <Array as="points">
              <mxPoint x="450" y="390" />
            </Array>
          </mxGeometry>
        </mxCell>
        <mxCell id="R3z29O32fDnyezuO_mP1-64" value="是否成功" style="rhombus;whiteSpace=wrap;html=1;fontSize=16;" vertex="1" parent="1">
          <mxGeometry x="310" y="430" width="100" height="50" as="geometry" />
        </mxCell>
        <mxCell id="R3z29O32fDnyezuO_mP1-69" style="edgeStyle=elbowEdgeStyle;rounded=0;orthogonalLoop=1;jettySize=auto;html=1;exitX=0.5;exitY=1;exitDx=0;exitDy=0;entryX=0.5;entryY=0;entryDx=0;entryDy=0;fontSize=16;" edge="1" parent="1" source="R3z29O32fDnyezuO_mP1-67" target="R3z29O32fDnyezuO_mP1-68">
          <mxGeometry relative="1" as="geometry" />
        </mxCell>
        <mxCell id="R3z29O32fDnyezuO_mP1-67" value="&lt;font style=&quot;font-size: 16px;&quot;&gt;宠物AR展示&lt;/font&gt;" style="rounded=0;whiteSpace=wrap;html=1;" vertex="1" parent="1">
          <mxGeometry x="300" y="530" width="120" height="40" as="geometry" />
        </mxCell>
        <mxCell id="R3z29O32fDnyezuO_mP1-68" value="&lt;font style=&quot;font-size: 16px;&quot;&gt;宠物藏馆&lt;/font&gt;" style="rounded=0;whiteSpace=wrap;html=1;" vertex="1" parent="1">
          <mxGeometry x="310" y="620" width="120" height="40" as="geometry" />
        </mxCell>
        <mxCell id="R3z29O32fDnyezuO_mP1-72" value="否" style="text;html=1;align=center;verticalAlign=middle;resizable=0;points=[];autosize=1;strokeColor=none;fillColor=none;fontSize=16;" vertex="1" parent="1">
          <mxGeometry x="430" y="365" width="40" height="30" as="geometry" />
        </mxCell>
      </root>
    </mxGraphModel>
  </diagram>
</mxfile>
